Coordinates
version=1
nRows=5
nColumns=46
inDegrees=yes

Units are S.I. units (second, meters, Newtons, ...)
Angles are in degrees.

endheader
time	pelvis_tilt	pelvis_list	pelvis_rotation	pelvis_tx	pelvis_ty	pelvis_tz	bb_angle	bb_tx	bb_ty	bb_tz	hip_flexion_r	hip_adduction_r	hip_rotation_r	knee_angle_r	knee_angle_r_beta	ankle_angle_r	subtalar_angle_r	mtp_angle_r	crank_angle_r	hip_flexion_l	hip_adduction_l	hip_rotation_l	knee_angle_l	knee_angle_l_beta	ankle_angle_l	subtalar_angle_l	mtp_angle_l	crank_angle_l	lumbar_extension	lumbar_bending	lumbar_rotation	arm_flex_r	arm_add_r	arm_rot_r	elbow_flex_r	pro_sup_r	wrist_flex_r	wrist_dev_r	arm_flex_l	arm_add_l	arm_rot_l	elbow_flex_l	pro_sup_l	wrist_flex_l	wrist_dev_l
      5.00000000	    -23.04469304	     -9.74735543	     -9.19785589	      0.39547948	      1.21593027	     -0.27398332	      0.00000000	      0.50000000	      0.00000000	      0.25000000	     64.10107017	      7.53671704	      1.90287639	     87.76283401	      1.53175041	     15.31570580	      2.30109645	      0.00000000	      0.00000000	     21.28780912	    -13.53428736	     -4.44055304	     35.69201307	      0.62294314	    -17.44150174	    -10.54456183	      0.00000000	      0.00000000	    -62.77888541	      8.25146231	      4.72221195	     49.23802254	    -10.72899019	     28.38205115	     82.06391886	     51.79955291	      0.00000000	      0.00000000	     27.22841667	    -20.92621507	      3.92367059	     89.13506503	     54.71423344	      0.00000000	      0.00000000
      5.00500000	    -22.95017477	     -9.08196192	     -9.64494519	      0.39539500	      1.21727396	     -0.27385687	      0.00000000	      0.50000000	      0.00000000	      0.25000000	     62.72612822	      7.49694193	      2.54525292	     85.28993384	      1.48859016	     17.09680956	      1.85977711	      0.00000000	      0.00000000	     22.28608708	    -12.91174556	     -4.15514155	     38.40242649	      0.67024878	    -17.89079408	    -11.21997840	      0.00000000	      0.00000000	    -63.13807626	      7.48691140	      4.59707998	     49.43408519	    -10.73062675	     28.21257601	     82.28910331	     51.81532951	      0.00000000	      0.00000000	     27.65714279	    -20.87411541	      4.00046878	     89.13474306	     54.72436210	      0.00000000	      0.00000000
      5.01000000	    -22.87367183	     -8.47358043	     -9.81913078	      0.39555094	      1.21833475	     -0.27430891	      0.00000000	      0.50000000	      0.00000000	      0.25000000	     61.27282020	      7.20792208	      2.95958050	     82.61915625	      1.44197630	     18.45356792	      1.24715023	      0.00000000	      0.00000000	     23.40304139	    -12.14974658	     -3.44896191	     41.06317787	      0.71668766	    -18.72248962	    -12.38848374	      0.00000000	      0.00000000	    -63.50021127	      6.83177279	      5.89427263	     48.27150144	    -12.40318562	     26.46311688	     84.97060666	     52.06757630	      0.00000000	      0.00000000	     29.45031637	    -19.84966855	      6.04140544	     87.98459132	     54.85805775	      0.00000000	      0.00000000
      5.01500000	    -22.65263248	     -7.60412022	    -10.08715635	      0.39589294	      1.21911562	     -0.27441374	      0.00000000	      0.50000000	      0.00000000	      0.25000000	     59.69247869	      6.83009078	      3.59211824	     79.94797799	      1.39535545	     19.67018522	      0.38483644	      0.00000000	      0.00000000	     24.32289304	    -11.22381514	     -3.21741306	     43.63734051	      0.76161527	    -19.34567163	    -12.87659659	      0.00000000	      0.00000000	    -63.82319359	      6.10360391	      5.48934841	     48.34010121	    -12.46463036	     26.34041763	     85.15368936	     52.08211705	      0.00000000	      0.00000000	     29.74238702	    -19.74802658	      6.12005922	     87.97470645	     54.86766482	      0.00000000	      0.00000000
      5.02000000	    -22.46856088	     -6.77267894	    -10.43212683	      0.39624193	      1.21970884	     -0.27463939	      0.00000000	      0.50000000	      0.00000000	      0.25000000	     58.12044742	      6.42322028	      4.16967473	     77.10785247	      1.34578590	     20.36776706	     -0.02899752	      0.00000000	      0.00000000	     25.22358048	    -10.32151922	     -2.99666698	     46.09082612	      0.80443667	    -19.95310424	    -13.27996173	      0.00000000	      0.00000000	    -64.03185212	      5.31574902	      5.06828368	     48.33068353	    -12.59861017	     26.21413384	     85.35384808	     52.10065736	      0.00000000	      0.00000000	     29.87797398	    -19.61447995	      6.22349597	     87.95360662	     54.87866428	      0.00000000	      0.00000000
